<svg width="97" height="97" viewBox="0 0 97 97" fill="none" xmlns="http://www.w3.org/2000/svg">
<path d="M15.224 31.56H30.92C33.288 31.56 35.336 31.976 37.064 32.808C38.792 33.608 40.136 34.712 41.096 36.12C42.056 37.528 42.536 39.144 42.536 40.968C42.536 43.08 42.104 44.84 41.24 46.248C40.408 47.624 39.272 48.472 37.832 48.792L37.88 48.936C38.84 49 39.832 49.432 40.856 50.232C41.912 51 42.792 52.072 43.496 53.448C44.232 54.824 44.6 56.488 44.6 58.44C44.6 60.488 44.088 62.312 43.064 63.912C42.072 65.48 40.616 66.728 38.696 67.656C36.808 68.552 34.52 69 31.832 69H15.224V31.56ZM31.832 66.696C35.064 66.696 37.608 65.944 39.464 64.44C41.352 62.904 42.296 60.904 42.296 58.44C42.296 57 41.944 55.624 41.24 54.312C40.568 52.968 39.64 51.864 38.456 51C37.272 50.104 35.96 49.592 34.52 49.464L34.328 48.792C35.928 48.472 37.144 47.88 37.976 47.016C38.84 46.152 39.432 45.176 39.752 44.088C40.072 42.968 40.232 41.928 40.232 40.968C40.232 38.824 39.368 37.112 37.64 35.832C35.912 34.52 33.672 33.864 30.92 33.864H17.528V66.696H31.832ZM21.656 36.312H29.576C31.464 36.312 33.032 36.888 34.28 38.04C35.528 39.192 36.152 40.712 36.152 42.6C36.152 44.392 35.608 45.848 34.52 46.968C33.432 48.056 31.848 48.6 29.768 48.6H21.656V36.312ZM29.768 46.296C31.08 46.296 32.088 45.96 32.792 45.288C33.496 44.616 33.848 43.72 33.848 42.6C33.848 41.384 33.432 40.424 32.6 39.72C31.8 38.984 30.792 38.616 29.576 38.616H23.96V46.296H29.768ZM21.656 50.712H30.344C32.616 50.712 34.472 51.304 35.912 52.488C37.384 53.672 38.12 55.272 38.12 57.288C38.12 59.368 37.448 61.016 36.104 62.232C34.792 63.448 32.952 64.056 30.584 64.056H21.656V50.712ZM30.584 61.752C32.184 61.752 33.448 61.368 34.376 60.6C35.336 59.8 35.816 58.696 35.816 57.288C35.816 55.912 35.288 54.856 34.232 54.12C33.208 53.384 31.912 53.016 30.344 53.016H23.96V61.752H30.584ZM65.9278 69.96C62.4718 69.96 59.4478 69.16 56.8558 67.56C54.2638 65.96 52.2478 63.688 50.8078 60.744C49.3678 57.768 48.6478 54.248 48.6478 50.184C48.6478 46.216 49.3678 42.76 50.8078 39.816C52.2478 36.872 54.2638 34.6 56.8558 33C59.4478 31.368 62.4718 30.552 65.9278 30.552C69.3838 30.552 72.3918 31.368 74.9518 33C77.5438 34.632 79.5438 36.92 80.9518 39.864C82.3598 42.808 83.0638 46.248 83.0638 50.184C83.0638 54.248 82.3598 57.768 80.9518 60.744C79.5438 63.688 77.5438 65.96 74.9518 67.56C72.3918 69.16 69.3838 69.96 65.9278 69.96ZM65.9278 67.704C68.9678 67.704 71.5918 66.984 73.7998 65.544C76.0078 64.104 77.7198 62.072 78.9358 59.448C80.1518 56.824 80.7598 53.736 80.7598 50.184C80.7598 46.728 80.1518 43.704 78.9358 41.112C77.7198 38.52 76.0078 36.504 73.7998 35.064C71.5918 33.592 68.9678 32.856 65.9278 32.856C62.8878 32.856 60.2478 33.576 58.0078 35.016C55.7678 36.456 54.0238 38.472 52.7758 41.064C51.5598 43.656 50.9518 46.696 50.9518 50.184C50.9518 53.736 51.5598 56.824 52.7758 59.448C54.0238 62.072 55.7678 64.104 58.0078 65.544C60.2478 66.984 62.8878 67.704 65.9278 67.704ZM65.9278 64.776C64.0078 64.776 62.2318 64.216 60.5998 63.096C58.9998 61.976 57.7198 60.344 56.7598 58.2C55.7998 56.024 55.3198 53.352 55.3198 50.184C55.3198 46.984 55.8318 44.328 56.8558 42.216C57.8798 40.072 59.1918 38.472 60.7918 37.416C62.4238 36.328 64.1358 35.784 65.9278 35.784C67.8478 35.784 69.5918 36.328 71.1598 37.416C72.7598 38.472 74.0238 40.072 74.9518 42.216C75.9118 44.328 76.3918 46.984 76.3918 50.184C76.3918 53.352 75.8958 56.024 74.9038 58.2C73.9118 60.344 72.6158 61.976 71.0157 63.096C69.4478 64.216 67.7518 64.776 65.9278 64.776ZM65.9278 62.472C67.4318 62.472 68.7918 61.992 70.0078 61.032C71.2558 60.072 72.2478 58.68 72.9838 56.856C73.7198 55 74.0878 52.776 74.0878 50.184C74.0878 46.28 73.3198 43.288 71.7838 41.208C70.2478 39.128 68.2958 38.088 65.9278 38.088C64.4558 38.088 63.0798 38.552 61.7998 39.48C60.5518 40.408 59.5438 41.768 58.7758 43.56C58.0078 45.352 57.6238 47.56 57.6238 50.184C57.6238 52.776 57.9758 55 58.6797 56.856C59.4158 58.68 60.4078 60.072 61.6558 61.032C62.9358 61.992 64.3598 62.472 65.9278 62.472Z" fill="#00BEC5"/>
<path d="M15.224 31.56H30.92C33.288 31.56 35.336 31.976 37.064 32.808C38.792 33.608 40.136 34.712 41.096 36.12C42.056 37.528 42.536 39.144 42.536 40.968C42.536 43.08 42.104 44.84 41.24 46.248C40.408 47.624 39.272 48.472 37.832 48.792L37.88 48.936C38.84 49 39.832 49.432 40.856 50.232C41.912 51 42.792 52.072 43.496 53.448C44.232 54.824 44.6 56.488 44.6 58.44C44.6 60.488 44.088 62.312 43.064 63.912C42.072 65.48 40.616 66.728 38.696 67.656C36.808 68.552 34.52 69 31.832 69H15.224V31.56ZM31.832 66.696C35.064 66.696 37.608 65.944 39.464 64.44C41.352 62.904 42.296 60.904 42.296 58.44C42.296 57 41.944 55.624 41.24 54.312C40.568 52.968 39.64 51.864 38.456 51C37.272 50.104 35.96 49.592 34.52 49.464L34.328 48.792C35.928 48.472 37.144 47.88 37.976 47.016C38.84 46.152 39.432 45.176 39.752 44.088C40.072 42.968 40.232 41.928 40.232 40.968C40.232 38.824 39.368 37.112 37.64 35.832C35.912 34.52 33.672 33.864 30.92 33.864H17.528V66.696H31.832ZM21.656 36.312H29.576C31.464 36.312 33.032 36.888 34.28 38.04C35.528 39.192 36.152 40.712 36.152 42.6C36.152 44.392 35.608 45.848 34.52 46.968C33.432 48.056 31.848 48.6 29.768 48.6H21.656V36.312ZM29.768 46.296C31.08 46.296 32.088 45.96 32.792 45.288C33.496 44.616 33.848 43.72 33.848 42.6C33.848 41.384 33.432 40.424 32.6 39.72C31.8 38.984 30.792 38.616 29.576 38.616H23.96V46.296H29.768ZM21.656 50.712H30.344C32.616 50.712 34.472 51.304 35.912 52.488C37.384 53.672 38.12 55.272 38.12 57.288C38.12 59.368 37.448 61.016 36.104 62.232C34.792 63.448 32.952 64.056 30.584 64.056H21.656V50.712ZM30.584 61.752C32.184 61.752 33.448 61.368 34.376 60.6C35.336 59.8 35.816 58.696 35.816 57.288C35.816 55.912 35.288 54.856 34.232 54.12C33.208 53.384 31.912 53.016 30.344 53.016H23.96V61.752H30.584ZM65.9278 69.96C62.4718 69.96 59.4478 69.16 56.8558 67.56C54.2638 65.96 52.2478 63.688 50.8078 60.744C49.3678 57.768 48.6478 54.248 48.6478 50.184C48.6478 46.216 49.3678 42.76 50.8078 39.816C52.2478 36.872 54.2638 34.6 56.8558 33C59.4478 31.368 62.4718 30.552 65.9278 30.552C69.3838 30.552 72.3918 31.368 74.9518 33C77.5438 34.632 79.5438 36.92 80.9518 39.864C82.3598 42.808 83.0638 46.248 83.0638 50.184C83.0638 54.248 82.3598 57.768 80.9518 60.744C79.5438 63.688 77.5438 65.96 74.9518 67.56C72.3918 69.16 69.3838 69.96 65.9278 69.96ZM65.9278 67.704C68.9678 67.704 71.5918 66.984 73.7998 65.544C76.0078 64.104 77.7198 62.072 78.9358 59.448C80.1518 56.824 80.7598 53.736 80.7598 50.184C80.7598 46.728 80.1518 43.704 78.9358 41.112C77.7198 38.52 76.0078 36.504 73.7998 35.064C71.5918 33.592 68.9678 32.856 65.9278 32.856C62.8878 32.856 60.2478 33.576 58.0078 35.016C55.7678 36.456 54.0238 38.472 52.7758 41.064C51.5598 43.656 50.9518 46.696 50.9518 50.184C50.9518 53.736 51.5598 56.824 52.7758 59.448C54.0238 62.072 55.7678 64.104 58.0078 65.544C60.2478 66.984 62.8878 67.704 65.9278 67.704ZM65.9278 64.776C64.0078 64.776 62.2318 64.216 60.5998 63.096C58.9998 61.976 57.7198 60.344 56.7598 58.2C55.7998 56.024 55.3198 53.352 55.3198 50.184C55.3198 46.984 55.8318 44.328 56.8558 42.216C57.8798 40.072 59.1918 38.472 60.7918 37.416C62.4238 36.328 64.1358 35.784 65.9278 35.784C67.8478 35.784 69.5918 36.328 71.1598 37.416C72.7598 38.472 74.0238 40.072 74.9518 42.216C75.9118 44.328 76.3918 46.984 76.3918 50.184C76.3918 53.352 75.8958 56.024 74.9038 58.2C73.9118 60.344 72.6158 61.976 71.0157 63.096C69.4478 64.216 67.7518 64.776 65.9278 64.776ZM65.9278 62.472C67.4318 62.472 68.7918 61.992 70.0078 61.032C71.2558 60.072 72.2478 58.68 72.9838 56.856C73.7198 55 74.0878 52.776 74.0878 50.184C74.0878 46.28 73.3198 43.288 71.7838 41.208C70.2478 39.128 68.2958 38.088 65.9278 38.088C64.4558 38.088 63.0798 38.552 61.7998 39.48C60.5518 40.408 59.5438 41.768 58.7758 43.56C58.0078 45.352 57.6238 47.56 57.6238 50.184C57.6238 52.776 57.9758 55 58.6797 56.856C59.4158 58.68 60.4078 60.072 61.6558 61.032C62.9358 61.992 64.3598 62.472 65.9278 62.472Z" fill="url(#paint0_linear)"/>
<mask id="path-2-inside-1" fill="white">
<path d="M93.0214 46.1119C95.1803 45.9961 96.8527 44.1481 96.5633 42.0056C95.1799 31.7655 90.5542 22.1964 83.3121 14.7307C75.1582 6.32502 64.2384 1.15348 52.569 0.170989C40.8996 -0.811499 29.2688 2.46143 19.8243 9.3854C10.3797 16.3094 3.75942 26.4167 1.18575 37.8411C-1.38792 49.2655 0.258911 61.2353 5.82213 71.5402C11.3854 81.8451 20.4892 89.7891 31.4527 93.9053C42.4161 98.0215 54.4987 98.0319 65.4692 93.9345C75.213 90.2954 83.495 83.634 89.1357 74.9764C90.3159 73.1649 89.5974 70.7783 87.6967 69.748C85.796 68.7177 83.4351 69.4362 82.2269 71.2291C77.5073 78.2327 70.702 83.6227 62.7299 86.6002C53.5303 90.0361 43.3982 90.0274 34.2046 86.5756C25.0109 83.1239 17.3767 76.4623 12.7115 67.8209C8.04635 59.1795 6.66536 49.1419 8.82357 39.5618C10.9818 29.9816 16.5334 21.5058 24.4533 15.6996C32.3732 9.89332 42.1265 7.14873 51.9121 7.97262C61.6978 8.7965 70.8549 13.1332 77.6925 20.182C83.6178 26.2903 87.4545 34.0777 88.7151 42.4284C89.0378 44.5662 90.8625 46.2277 93.0214 46.1119Z"/>
</mask>
<path d="M93.0214 46.1119C95.1803 45.9961 96.8527 44.1481 96.5633 42.0056C95.1799 31.7655 90.5542 22.1964 83.3121 14.7307C75.1582 6.32502 64.2384 1.15348 52.569 0.170989C40.8996 -0.811499 29.2688 2.46143 19.8243 9.3854C10.3797 16.3094 3.75942 26.4167 1.18575 37.8411C-1.38792 49.2655 0.258911 61.2353 5.82213 71.5402C11.3854 81.8451 20.4892 89.7891 31.4527 93.9053C42.4161 98.0215 54.4987 98.0319 65.4692 93.9345C75.213 90.2954 83.495 83.634 89.1357 74.9764C90.3159 73.1649 89.5974 70.7783 87.6967 69.748C85.796 68.7177 83.4351 69.4362 82.2269 71.2291C77.5073 78.2327 70.702 83.6227 62.7299 86.6002C53.5303 90.0361 43.3982 90.0274 34.2046 86.5756C25.0109 83.1239 17.3767 76.4623 12.7115 67.8209C8.04635 59.1795 6.66536 49.1419 8.82357 39.5618C10.9818 29.9816 16.5334 21.5058 24.4533 15.6996C32.3732 9.89332 42.1265 7.14873 51.9121 7.97262C61.6978 8.7965 70.8549 13.1332 77.6925 20.182C83.6178 26.2903 87.4545 34.0777 88.7151 42.4284C89.0378 44.5662 90.8625 46.2277 93.0214 46.1119Z" stroke="#00BEC5" stroke-width="6" stroke-linecap="round" stroke-linejoin="round" mask="url(#path-2-inside-1)"/>
<path d="M93.0214 46.1119C95.1803 45.9961 96.8527 44.1481 96.5633 42.0056C95.1799 31.7655 90.5542 22.1964 83.3121 14.7307C75.1582 6.32502 64.2384 1.15348 52.569 0.170989C40.8996 -0.811499 29.2688 2.46143 19.8243 9.3854C10.3797 16.3094 3.75942 26.4167 1.18575 37.8411C-1.38792 49.2655 0.258911 61.2353 5.82213 71.5402C11.3854 81.8451 20.4892 89.7891 31.4527 93.9053C42.4161 98.0215 54.4987 98.0319 65.4692 93.9345C75.213 90.2954 83.495 83.634 89.1357 74.9764C90.3159 73.1649 89.5974 70.7783 87.6967 69.748C85.796 68.7177 83.4351 69.4362 82.2269 71.2291C77.5073 78.2327 70.702 83.6227 62.7299 86.6002C53.5303 90.0361 43.3982 90.0274 34.2046 86.5756C25.0109 83.1239 17.3767 76.4623 12.7115 67.8209C8.04635 59.1795 6.66536 49.1419 8.82357 39.5618C10.9818 29.9816 16.5334 21.5058 24.4533 15.6996C32.3732 9.89332 42.1265 7.14873 51.9121 7.97262C61.6978 8.7965 70.8549 13.1332 77.6925 20.182C83.6178 26.2903 87.4545 34.0777 88.7151 42.4284C89.0378 44.5662 90.8625 46.2277 93.0214 46.1119Z" stroke="url(#paint1_linear)" stroke-width="6" stroke-linecap="round" stroke-linejoin="round" mask="url(#path-2-inside-1)"/>
<defs>
<linearGradient id="paint0_linear" x1="86" y1="89.5" x2="-1.50001" y2="-9" gradientUnits="userSpaceOnUse">
<stop stop-color="#FF0BAC"/>
<stop offset="1" stop-color="white" stop-opacity="0"/>
</linearGradient>
<linearGradient id="paint1_linear" x1="-6.86068e-07" y1="26.5" x2="78.5" y2="78.5" gradientUnits="userSpaceOnUse">
<stop stop-color="#FF0BAC"/>
<stop offset="1" stop-color="white" stop-opacity="0"/>
</linearGradient>
</defs>
</svg>
