<svg width="223" height="52" viewBox="0 0 223 52" fill="none" xmlns="http://www.w3.org/2000/svg">
<g clip-path="url(#clip0)">
<path d="M95.7179 22.9305L92.4868 40.2293H84.0697L87.3008 22.9305C87.5541 21.5708 87.4072 21.3202 86.2145 21.3202H83.1758C81.9908 21.3202 81.7426 21.5708 81.4919 22.896C81.4919 22.896 81.4919 22.919 81.4919 22.9305L78.2608 40.2293H69.8361L73.0698 22.9305C73.323 21.5708 73.1761 21.3202 71.9809 21.3202H68.9422C67.747 21.3202 67.5065 21.5737 67.2532 22.9305L64.0196 40.2293H55.6025L60.5631 13.6747H67.4001L68.4839 15.9563C69.1074 15.2095 69.862 14.6204 70.6988 14.2273C71.5356 13.8342 72.4357 13.646 73.3407 13.6747H75.0854C78.3773 13.6747 80.598 15.3024 81.3932 18.0534C82.8644 14.9941 84.9965 13.6747 87.5718 13.6747H89.319C94.2644 13.6747 96.7789 17.3073 95.7179 22.9305Z" fill="white"/>
<path d="M121.387 22.9306L119.885 30.9736C118.835 36.5968 114.96 40.2294 110.01 40.2294H103.634C98.6908 40.2294 96.1763 36.5939 97.2271 30.9707L98.7287 22.9306C99.7771 17.3074 103.651 13.6748 108.604 13.6748H114.991C119.923 13.6748 122.44 17.3074 121.387 22.9306ZM112.962 22.9306C113.216 21.5709 113.069 21.3203 111.876 21.3203H108.837C107.642 21.3203 107.402 21.5738 107.148 22.9306L105.644 30.9707C105.391 32.3304 105.54 32.581 106.733 32.581H109.772C110.964 32.581 111.208 32.3275 111.461 30.9707L112.962 22.9306Z" fill="white"/>
<path d="M173.918 20.8161C173.61 22.3256 172.866 23.6744 171.806 24.6474L167.519 28.6804C166.491 29.6638 165.198 30.2169 163.855 30.2476H157.919L157.785 30.9591C157.532 32.3188 157.679 32.5694 158.874 32.5694H171.717L170.289 40.2178H155.764C150.822 40.2178 148.307 36.5823 149.358 30.9591L150.86 22.919C151.91 17.2958 155.785 13.6632 160.735 13.6632H167.127C172.057 13.6747 174.607 17.1172 173.918 20.8161ZM165.101 22.9305C165.354 21.5708 165.207 21.3202 164.012 21.3202H160.973C159.783 21.3173 159.53 21.5737 159.277 22.9305L158.77 25.6989H163.784C164.009 25.6883 164.224 25.5945 164.398 25.4318C164.572 25.269 164.694 25.0462 164.746 24.7972L165.101 22.9305Z" fill="white"/>
<path d="M183.381 35.721C182.915 38.2128 181.185 40.2322 178.57 40.2322C175.954 40.2322 174.982 38.2157 175.447 35.721C175.913 33.2263 177.643 31.2126 180.259 31.2126C182.874 31.2126 183.839 33.2263 183.381 35.721Z" fill="#4CD62B"/>
<path d="M201.441 13.6749L200.012 21.3175L196.467 40.2266H188.053L191.598 21.3175H187.397L188.828 13.672L201.441 13.6749ZM195.191 8.71716C193.733 6.87349 194.178 3.71045 196.181 1.65649C198.184 -0.397466 200.992 -0.564548 202.459 1.282C203.925 3.12854 203.471 6.29158 201.469 8.34554C199.466 10.3995 196.652 10.5666 195.191 8.71716Z" fill="white"/>
<path d="M214.948 17.4976L212.43 30.9707C212.177 32.3304 212.324 32.5811 213.517 32.5811H218.751L217.323 40.2294H210.412C205.469 40.2294 202.952 36.5939 204.003 30.9707L206.52 17.4976H203.337L204.765 9.84925H207.956L209.126 3.58655H217.551L216.381 9.84925H223.005L221.569 17.4976H214.948Z" fill="white"/>
<path d="M22.7545 3.89478H33.4354L24.5499 52H13.869L22.7545 3.89478Z" fill="white"/>
<path d="M38.4264 3.89478H49.1074L42.1843 41.5862H31.5008L38.4264 3.89478Z" fill="white"/>
<path d="M6.92562 3.89478H17.6065L10.6834 41.5862H0L6.92562 3.89478Z" fill="white"/>
<path d="M152.556 13.6748L136.95 40.2293H128.341L122.648 13.6748H131.868L134.347 31.1118L143.336 13.6892L152.556 13.6748Z" fill="white"/>
</g>
<defs>
<clipPath id="clip0">
<rect width="223" height="52" fill="white"/>
</clipPath>
</defs>
</svg>
